<?xml version="1.0" encoding="UTF-8" standalone="no"?>
<!-- Generator: Adobe Illustrator 27.5.0, SVG Export Plug-In . SVG Version: 6.00 Build 0)  -->

<svg
   version="1.1"
   id="Layer_1"
   x="0px"
   y="0px"
   viewBox="0 0 299.98 115.59"
   style="enable-background:new 0 0 299.98 115.59;"
   xml:space="preserve"
   sodipodi:docname="BanffApp_A_black.svg"
   xmlns:inkscape="http://www.inkscape.org/namespaces/inkscape"
   xmlns:sodipodi="http://sodipodi.sourceforge.net/DTD/sodipodi-0.dtd"
   xmlns="http://www.w3.org/2000/svg"
   xmlns:svg="http://www.w3.org/2000/svg"><defs
   id="defs61" /><sodipodi:namedview
   id="namedview59"
   pagecolor="#ffffff"
   bordercolor="#000000"
   borderopacity="0.25"
   inkscape:showpageshadow="2"
   inkscape:pageopacity="0.0"
   inkscape:pagecheckerboard="0"
   inkscape:deskcolor="#d1d1d1" />
<g
   id="g56">
	<g
   id="g12">
		<path
   d="M69.3,52.33c0,2.72-0.62,5.03-1.86,6.93s-3.46,3.38-6.66,4.44c-3.2,1.06-7.64,1.59-13.32,1.59h-27    c0.32-7.76,0.48-15.02,0.48-21.78s-0.16-14.02-0.48-21.78h14.1v0.06h12.78c4.96,0,8.87,0.41,11.73,1.23s4.88,2.01,6.06,3.57    s1.77,3.54,1.77,5.94c0,2.44-0.85,4.61-2.55,6.51c-1.7,1.9-4.61,3.43-8.73,4.59C64.74,43.63,69.3,46.53,69.3,52.33z M34.56,32.71    v5.58h11.52c2.48,0,4.21-0.22,5.19-0.66s1.47-1.24,1.47-2.4c0-0.92-0.51-1.57-1.53-1.95s-2.73-0.57-5.13-0.57H34.56z M46.08,54.31    c2.08,0,3.67-0.09,4.77-0.27c1.1-0.18,1.89-0.5,2.37-0.96s0.72-1.09,0.72-1.89c0-1.04-0.57-1.79-1.71-2.25s-3.19-0.69-6.15-0.69    H34.56v6.06C34.56,54.31,46.08,54.31,46.08,54.31z"
   id="path2" />
		<path
   d="M108.42,65.29c-0.76-2.28-1.78-5.14-3.06-8.58H86.22l-3,8.58H68.16l16.8-43.56h22.08l16.92,43.56H108.42z M101.94,47.35    c-1.52-4.2-3.08-8.4-4.68-12.6l-1.44-3.9c-1.4,3.64-3.46,9.14-6.18,16.5H101.94z"
   id="path4" />
		<path
   d="M176.34,21.79c-0.28,6.76-0.42,14-0.42,21.72c0,7.76,0.14,15.02,0.42,21.78h-21.48l-14.52-32.76l1.08,32.76H126    c0.32-7.76,0.48-15.02,0.48-21.78c0-6.72-0.16-13.96-0.48-21.72h22.08l14.58,33.66l-1.02-33.66    C161.64,21.79,176.34,21.79,176.34,21.79z"
   id="path6" />
		<path
   d="M227.94,32.95H195.3v6.3c2.04,0.04,5.1,0.06,9.18,0.06c7.04,0,14.2-0.12,21.48-0.36v11.76    c-7.28-0.28-14.96-0.42-23.04-0.42c-3.36,0-5.9,0.02-7.62,0.06v14.94h-14.16c0.32-7.76,0.48-15.02,0.48-21.78    s-0.16-14.02-0.48-21.78h46.8L227.94,32.95L227.94,32.95z"
   id="path8" />
		<path
   d="M279.54,32.95H246.9v6.3c2.04,0.04,5.1,0.06,9.18,0.06c7.04,0,14.2-0.12,21.48-0.36v11.76    c-7.28-0.28-14.96-0.42-23.04-0.42c-3.36,0-5.9,0.02-7.62,0.06v14.94h-14.16c0.32-7.76,0.48-15.02,0.48-21.78    s-0.16-14.02-0.48-21.78h46.8L279.54,32.95L279.54,32.95z"
   id="path10" />
	</g>
	<g
   id="g54">
		<path
   d="M20.15,91.13l0.81-1.2c0.21,0.36,0.5,0.65,0.88,0.86s0.8,0.31,1.26,0.31c0.43,0,0.82-0.09,1.15-0.27s0.59-0.44,0.78-0.77    s0.28-0.71,0.28-1.13s-0.09-0.81-0.28-1.13s-0.45-0.58-0.78-0.77s-0.72-0.27-1.15-0.27c-0.3,0-0.58,0.05-0.85,0.14    s-0.5,0.23-0.72,0.41l-0.75-0.46l0.45-4.88h5.1v1.33h-3.72l-0.27,2.67c0.36-0.12,0.75-0.18,1.16-0.18c0.65,0,1.23,0.14,1.73,0.42    s0.89,0.66,1.18,1.15s0.43,1.05,0.43,1.68c0,0.67-0.15,1.25-0.46,1.76s-0.74,0.91-1.29,1.2c-0.55,0.29-1.18,0.43-1.89,0.43    c-0.61,0-1.17-0.11-1.71-0.34C20.97,91.86,20.52,91.54,20.15,91.13z"
   id="path14" />
		<path
   d="M36.4,92.22h-1.5v-8.77l-1.84,0.67l-0.47-1.21l2.6-0.94h1.21C36.4,81.97,36.4,92.22,36.4,92.22z"
   id="path16" />
		<path
   d="M44.36,92.36c-0.23,0-0.41-0.07-0.55-0.21s-0.21-0.32-0.21-0.55s0.07-0.42,0.21-0.56s0.32-0.21,0.55-0.21    c0.22,0,0.41,0.07,0.55,0.21s0.22,0.33,0.22,0.56c0,0.22-0.07,0.41-0.22,0.55S44.58,92.36,44.36,92.36z"
   id="path18" />
		<path
   d="M54.29,92.22h-1.5v-8.77l-1.84,0.67l-0.47-1.21l2.6-0.94h1.21C54.29,81.97,54.29,92.22,54.29,92.22z"
   id="path20" />
		<path
   d="M63.63,92.22h-1.62l3.68-8.93h-4.68v-1.33h6.43v1.01L63.63,92.22z"
   id="path22" />
		<path
   d="M77.11,92.43c-0.68,0-1.27-0.12-1.78-0.36s-0.91-0.58-1.19-1.02c-0.28-0.44-0.42-0.95-0.42-1.53    c0-0.66,0.18-1.22,0.53-1.69c0.36-0.47,0.84-0.81,1.46-1.02c-0.51-0.2-0.91-0.51-1.2-0.92c-0.29-0.41-0.43-0.9-0.43-1.47    c0-0.53,0.13-1,0.38-1.39s0.6-0.7,1.06-0.92s0.99-0.32,1.61-0.32c0.61,0,1.14,0.11,1.6,0.32c0.46,0.22,0.81,0.52,1.06,0.92    s0.37,0.86,0.37,1.39c0,0.57-0.14,1.05-0.43,1.47s-0.68,0.72-1.19,0.92c0.62,0.21,1.1,0.54,1.46,1.02s0.53,1.04,0.53,1.7    c0,0.58-0.14,1.09-0.42,1.53s-0.68,0.78-1.19,1.02S77.79,92.43,77.11,92.43z M77.11,91.15c0.38,0,0.71-0.08,1-0.24    c0.29-0.16,0.51-0.38,0.67-0.66c0.16-0.29,0.24-0.61,0.24-0.99s-0.08-0.71-0.24-0.99c-0.16-0.29-0.38-0.51-0.67-0.66    c-0.28-0.16-0.62-0.24-1-0.24c-0.37,0-0.7,0.08-0.99,0.24s-0.51,0.38-0.67,0.66s-0.24,0.61-0.24,0.99s0.08,0.71,0.24,0.99    s0.38,0.5,0.67,0.66C76.4,91.08,76.73,91.15,77.11,91.15z M77.11,86.21c0.46,0,0.84-0.15,1.13-0.44s0.43-0.68,0.43-1.16    s-0.14-0.87-0.43-1.16s-0.67-0.44-1.13-0.44s-0.84,0.15-1.13,0.44s-0.43,0.68-0.43,1.16c0,0.47,0.14,0.86,0.43,1.16    S76.64,86.21,77.11,86.21z"
   id="path24" />
		<path
   d="M93.36,92.22h-1.5v-2.33h-5.09v-1.17l5.09-6.75h1.5v6.6h1.25v1.32h-1.25V92.22z M88.33,88.57h3.53v-4.68L88.33,88.57z"
   id="path26" />
		<path
   d="M102.56,85.66c-0.37,0-0.7-0.08-0.98-0.25c-0.29-0.17-0.51-0.39-0.68-0.68c-0.16-0.29-0.25-0.62-0.25-0.99    s0.08-0.7,0.25-0.98c0.16-0.28,0.39-0.51,0.68-0.68s0.62-0.25,0.98-0.25s0.7,0.08,0.99,0.25s0.52,0.39,0.68,0.68    s0.25,0.62,0.25,0.98s-0.08,0.7-0.25,0.98s-0.39,0.51-0.68,0.68C103.26,85.58,102.93,85.66,102.56,85.66z M102.57,84.88    c0.31,0,0.57-0.11,0.77-0.32s0.31-0.49,0.31-0.81s-0.1-0.6-0.31-0.81s-0.46-0.32-0.77-0.32c-0.32,0-0.58,0.11-0.78,0.32    s-0.3,0.49-0.3,0.81s0.1,0.6,0.3,0.81S102.25,84.88,102.57,84.88z"
   id="path28" />
		<path
   d="M128.63,92.22h-1.65l-5.89-7.92v7.92h-1.5V81.97h1.65l5.89,7.92v-7.92h1.5V92.22z"
   id="path30" />
		<path
   d="M136.49,93.86h-0.99l0.53-2.9h1.22L136.49,93.86z"
   id="path32" />
		<path
   d="M155.95,92.22h-1.5v-8.77l-1.84,0.67l-0.47-1.21l2.6-0.94h1.21L155.95,92.22L155.95,92.22z"
   id="path34" />
		<path
   d="M167.16,92.22h-1.5v-8.77l-1.84,0.67l-0.47-1.21l2.6-0.94h1.21L167.16,92.22L167.16,92.22z"
   id="path36" />
		<path
   d="M174.06,91.13l0.81-1.2c0.21,0.36,0.5,0.65,0.88,0.86s0.8,0.31,1.26,0.31c0.43,0,0.82-0.09,1.15-0.27    c0.33-0.18,0.59-0.44,0.78-0.77c0.19-0.33,0.28-0.71,0.28-1.13s-0.09-0.81-0.28-1.13c-0.19-0.33-0.45-0.58-0.78-0.77    c-0.33-0.18-0.71-0.27-1.15-0.27c-0.3,0-0.58,0.05-0.85,0.14c-0.26,0.1-0.5,0.23-0.72,0.41l-0.75-0.46l0.45-4.88h5.1v1.33h-3.72    l-0.27,2.67c0.36-0.12,0.75-0.18,1.16-0.18c0.65,0,1.23,0.14,1.73,0.42s0.89,0.66,1.18,1.15c0.28,0.49,0.43,1.05,0.43,1.68    c0,0.67-0.15,1.25-0.46,1.76c-0.31,0.51-0.74,0.91-1.29,1.2c-0.55,0.29-1.18,0.43-1.89,0.43c-0.61,0-1.17-0.11-1.71-0.34    C174.88,91.86,174.43,91.54,174.06,91.13z"
   id="path38" />
		<path
   d="M188.07,92.36c-0.23,0-0.41-0.07-0.55-0.21s-0.21-0.32-0.21-0.55s0.07-0.42,0.21-0.56s0.32-0.21,0.55-0.21    c0.22,0,0.41,0.07,0.55,0.21c0.15,0.14,0.22,0.33,0.22,0.56c0,0.22-0.07,0.41-0.22,0.55C188.48,92.29,188.29,92.36,188.07,92.36z"
   id="path40" />
		<path
   d="M195.39,91.13l0.81-1.2c0.21,0.36,0.5,0.65,0.88,0.86s0.8,0.31,1.26,0.31c0.43,0,0.82-0.09,1.15-0.27    c0.33-0.18,0.59-0.44,0.78-0.77c0.19-0.33,0.28-0.71,0.28-1.13s-0.09-0.81-0.28-1.13c-0.19-0.33-0.45-0.58-0.78-0.77    c-0.33-0.18-0.71-0.27-1.15-0.27c-0.3,0-0.58,0.05-0.85,0.14c-0.26,0.1-0.5,0.23-0.72,0.41l-0.75-0.46l0.45-4.88h5.1v1.33h-3.72    l-0.27,2.67c0.36-0.12,0.75-0.18,1.16-0.18c0.65,0,1.23,0.14,1.73,0.42s0.89,0.66,1.18,1.15c0.28,0.49,0.43,1.05,0.43,1.68    c0,0.67-0.15,1.25-0.46,1.76c-0.31,0.51-0.74,0.91-1.29,1.2c-0.55,0.29-1.18,0.43-1.89,0.43c-0.61,0-1.17-0.11-1.71-0.34    C196.21,91.86,195.76,91.54,195.39,91.13z"
   id="path42" />
		<path
   d="M210.85,92.22h-1.62l3.68-8.93h-4.68v-1.33h6.43v1.01L210.85,92.22z"
   id="path44" />
		<path
   d="M224.4,92.43c-0.74,0-1.37-0.21-1.91-0.62c-0.53-0.42-0.94-1.02-1.23-1.82s-0.43-1.76-0.43-2.9    c0-1.13,0.14-2.09,0.43-2.88s0.7-1.4,1.23-1.82s1.17-0.62,1.91-0.62s1.37,0.21,1.9,0.62c0.53,0.42,0.94,1.02,1.23,1.82    c0.29,0.79,0.43,1.75,0.43,2.88s-0.14,2.1-0.43,2.9c-0.29,0.79-0.7,1.4-1.23,1.82C225.77,92.22,225.13,92.43,224.4,92.43z     M224.4,91.1c0.64,0,1.14-0.35,1.49-1.06c0.36-0.7,0.54-1.69,0.54-2.96s-0.18-2.25-0.54-2.95s-0.86-1.05-1.49-1.05    c-0.64,0-1.14,0.35-1.49,1.05c-0.36,0.7-0.54,1.68-0.54,2.95s0.18,2.25,0.54,2.96C223.26,90.75,223.76,91.1,224.4,91.1z"
   id="path46" />
		<path
   d="M237.73,92.43c-0.68,0-1.27-0.12-1.78-0.36s-0.91-0.58-1.19-1.02c-0.28-0.44-0.42-0.95-0.42-1.53    c0-0.66,0.18-1.22,0.53-1.69c0.36-0.47,0.84-0.81,1.46-1.02c-0.51-0.2-0.91-0.51-1.2-0.92c-0.29-0.41-0.43-0.9-0.43-1.47    c0-0.53,0.12-1,0.38-1.39c0.25-0.4,0.6-0.7,1.06-0.92c0.46-0.22,0.99-0.32,1.61-0.32c0.61,0,1.14,0.11,1.6,0.32    c0.46,0.22,0.81,0.52,1.06,0.92s0.37,0.86,0.37,1.39c0,0.57-0.14,1.05-0.43,1.47s-0.68,0.72-1.19,0.92    c0.62,0.21,1.1,0.54,1.46,1.02s0.53,1.04,0.53,1.7c0,0.58-0.14,1.09-0.42,1.53s-0.68,0.78-1.19,1.02    C239.01,92.31,238.42,92.43,237.73,92.43z M237.73,91.15c0.38,0,0.71-0.08,1-0.24c0.29-0.16,0.51-0.38,0.67-0.66    c0.16-0.29,0.24-0.61,0.24-0.99s-0.08-0.71-0.24-0.99c-0.16-0.29-0.38-0.51-0.67-0.66c-0.28-0.16-0.62-0.24-1-0.24    c-0.37,0-0.7,0.08-0.99,0.24c-0.28,0.16-0.51,0.38-0.67,0.66c-0.16,0.28-0.24,0.61-0.24,0.99s0.08,0.71,0.24,0.99    s0.38,0.5,0.67,0.66C237.03,91.08,237.36,91.15,237.73,91.15z M237.73,86.21c0.46,0,0.84-0.15,1.13-0.44    c0.29-0.3,0.43-0.68,0.43-1.16s-0.14-0.87-0.43-1.16c-0.29-0.3-0.67-0.44-1.13-0.44s-0.84,0.15-1.13,0.44    c-0.29,0.3-0.43,0.68-0.43,1.16c0,0.47,0.14,0.86,0.43,1.16C236.89,86.06,237.27,86.21,237.73,86.21z"
   id="path48" />
		<path
   d="M249.3,85.66c-0.37,0-0.7-0.08-0.98-0.25c-0.29-0.17-0.51-0.39-0.68-0.68c-0.16-0.29-0.25-0.62-0.25-0.99    s0.08-0.7,0.25-0.98c0.16-0.28,0.39-0.51,0.68-0.68s0.62-0.25,0.98-0.25s0.7,0.08,0.99,0.25c0.29,0.17,0.52,0.39,0.68,0.68    c0.17,0.29,0.25,0.62,0.25,0.98s-0.08,0.7-0.25,0.98c-0.17,0.29-0.39,0.51-0.68,0.68C250,85.58,249.67,85.66,249.3,85.66z     M249.31,84.88c0.31,0,0.57-0.11,0.77-0.32s0.31-0.49,0.31-0.81s-0.1-0.6-0.31-0.81s-0.46-0.32-0.77-0.32    c-0.32,0-0.58,0.11-0.78,0.32s-0.3,0.49-0.3,0.81s0.1,0.6,0.3,0.81S248.99,84.88,249.31,84.88z"
   id="path50" />
		<path
   d="M276.51,92.22h-1.34l-2.41-7.72l-2.42,7.72H269l-3.34-10.25h1.57l2.43,7.74l2.43-7.74h1.33l2.42,7.72l2.41-7.72h1.58    L276.51,92.22z"
   id="path52" />
	</g>
</g>
</svg>
